<?xml version="1.0" encoding="UTF-8"?>
<svg width="700pt" height="700pt" version="1.1" viewBox="0 0 700 700" xmlns="http://www.w3.org/2000/svg" xmlns:xlink="http://www.w3.org/1999/xlink">
 <defs>
  <symbol id="d" overflow="visible">
   <path d="m29.312-1.75c-1.5117 0.78125-3.0898 1.3711-4.7344 1.7656-1.6367 0.40625-3.3398 0.60938-5.1094 0.60938-5.3125 0-9.5273-1.4844-12.641-4.4531-3.1055-2.9688-4.6562-7-4.6562-12.094s1.5508-9.125 4.6562-12.094c3.1133-2.9688 7.3281-4.4531 12.641-4.4531 1.7695 0 3.4727 0.19922 5.1094 0.59375 1.6445 0.39844 3.2227 0.99219 4.7344 1.7812v6.5938c-1.5312-1.0391-3.0391-1.8008-4.5156-2.2812-1.4805-0.48828-3.0391-0.73438-4.6719-0.73438-2.9375 0-5.2461 0.94531-6.9219 2.8281-1.6797 1.875-2.5156 4.4648-2.5156 7.7656 0 3.293 0.83594 5.8828 2.5156 7.7656 1.6758 1.875 3.9844 2.8125 6.9219 2.8125 1.6328 0 3.1914-0.23828 4.6719-0.71875 1.4766-0.48828 2.9844-1.2539 4.5156-2.2969z"/>
  </symbol>
  <symbol id="k" overflow="visible">
   <path d="m21.453-17.406c-0.67969-0.3125-1.3516-0.53906-2.0156-0.6875-0.65625-0.15625-1.3203-0.23438-1.9844-0.23438-1.9688 0-3.4844 0.63281-4.5469 1.8906-1.0547 1.2617-1.5781 3.0703-1.5781 5.4219v11.016h-7.6562v-23.922h7.6562v3.9219c0.97656-1.5625 2.1016-2.7031 3.375-3.4219 1.2812-0.71875 2.8125-1.0781 4.5938-1.0781 0.25 0 0.52344 0.011719 0.82812 0.03125 0.30078 0.023438 0.73438 0.070312 1.2969 0.14062z"/>
  </symbol>
  <symbol id="a" overflow="visible">
   <path d="m27.562-12.031v2.1875h-17.891c0.1875 1.793 0.83203 3.1367 1.9375 4.0312 1.1133 0.89844 2.6719 1.3438 4.6719 1.3438 1.6016 0 3.25-0.23438 4.9375-0.70312 1.6875-0.47656 3.4219-1.2031 5.2031-2.1719v5.8906c-1.8047 0.6875-3.6094 1.2031-5.4219 1.5469-1.8125 0.35156-3.6211 0.53125-5.4219 0.53125-4.3359 0-7.7031-1.0977-10.109-3.2969-2.3984-2.207-3.5938-5.2969-3.5938-9.2656 0-3.9062 1.1758-6.9727 3.5312-9.2031 2.3633-2.2383 5.6094-3.3594 9.7344-3.3594 3.7578 0 6.7695 1.1367 9.0312 3.4062 2.2578 2.2617 3.3906 5.2812 3.3906 9.0625zm-7.8594-2.5312c0-1.457-0.42969-2.6289-1.2812-3.5156-0.84375-0.89453-1.9492-1.3438-3.3125-1.3438-1.4922 0-2.6992 0.41797-3.625 1.25-0.91797 0.83594-1.4922 2.0391-1.7188 3.6094z"/>
  </symbol>
  <symbol id="j" overflow="visible">
   <path d="m14.391-10.766c-1.5938 0-2.793 0.27344-3.5938 0.8125-0.80469 0.54297-1.2031 1.3398-1.2031 2.3906 0 0.96875 0.32031 1.7305 0.96875 2.2812 0.64453 0.54297 1.5469 0.8125 2.7031 0.8125 1.4375 0 2.6445-0.51562 3.625-1.5469 0.98828-1.0312 1.4844-2.3203 1.4844-3.875v-0.875zm11.688-2.8906v13.656h-7.7031v-3.5469c-1.0312 1.4492-2.1875 2.5078-3.4688 3.1719s-2.8398 1-4.6719 1c-2.4805 0-4.4961-0.72266-6.0469-2.1719-1.543-1.4453-2.3125-3.3203-2.3125-5.625 0-2.8125 0.96094-4.8672 2.8906-6.1719 1.9375-1.3125 4.9688-1.9688 9.0938-1.9688h4.5156v-0.60938c0-1.207-0.48047-2.0938-1.4375-2.6562-0.94922-0.5625-2.4375-0.84375-4.4688-0.84375-1.6367 0-3.1562 0.16797-4.5625 0.5-1.4062 0.32422-2.7188 0.8125-3.9375 1.4688v-5.8281c1.6445-0.40625 3.2891-0.70703 4.9375-0.90625 1.6562-0.20703 3.3047-0.3125 4.9531-0.3125 4.3203 0 7.4375 0.85547 9.3438 2.5625 1.9141 1.6992 2.875 4.4609 2.875 8.2812z"/>
  </symbol>
  <symbol id="i" overflow="visible">
   <path d="m12.031-30.719v6.7969h7.875v5.4688h-7.875v10.141c0 1.1172 0.21875 1.8711 0.65625 2.2656 0.4375 0.38672 1.3125 0.57812 2.625 0.57812h3.9375v5.4688h-6.5625c-3.0234 0-5.1641-0.62891-6.4219-1.8906-1.2617-1.2578-1.8906-3.3984-1.8906-6.4219v-10.141h-3.7969v-5.4688h3.7969v-6.7969z"/>
  </symbol>
  <symbol id="h" overflow="visible">
   <path d="m19.953-20.422v-12.812h7.6875v33.234h-7.6875v-3.4531c-1.0547 1.4062-2.2148 2.4375-3.4844 3.0938-1.2734 0.65625-2.7422 0.98438-4.4062 0.98438-2.9492 0-5.3711-1.1719-7.2656-3.5156-1.8867-2.3438-2.8281-5.3594-2.8281-9.0469s0.94141-6.7031 2.8281-9.0469c1.8945-2.3438 4.3164-3.5156 7.2656-3.5156 1.6562 0 3.1172 0.33594 4.3906 1 1.2812 0.65625 2.4453 1.6836 3.5 3.0781zm-5.0469 15.484c1.6445 0 2.8945-0.59766 3.75-1.7969 0.86328-1.1953 1.2969-2.9297 1.2969-5.2031 0-2.2812-0.43359-4.0195-1.2969-5.2188-0.85547-1.1953-2.1055-1.7969-3.75-1.7969-1.625 0-2.8711 0.60156-3.7344 1.7969-0.85547 1.1992-1.2812 2.9375-1.2812 5.2188 0 2.2734 0.42578 4.0078 1.2812 5.2031 0.86328 1.1992 2.1094 1.7969 3.7344 1.7969z"/>
  </symbol>
  <symbol id="g" overflow="visible">
   <path d="m16.406-4.9375c1.6328 0 2.8828-0.59766 3.75-1.7969 0.86328-1.1953 1.2969-2.9297 1.2969-5.2031 0-2.2812-0.43359-4.0195-1.2969-5.2188-0.86719-1.1953-2.1172-1.7969-3.75-1.7969-1.6367 0-2.8906 0.60547-3.7656 1.8125-0.875 1.1992-1.3125 2.9336-1.3125 5.2031 0 2.2617 0.4375 3.9961 1.3125 5.2031 0.875 1.1992 2.1289 1.7969 3.7656 1.7969zm-5.0781-15.484c1.0508-1.3945 2.2188-2.4219 3.5-3.0781 1.2812-0.66406 2.7539-1 4.4219-1 2.9453 0 5.3672 1.1719 7.2656 3.5156 1.8945 2.3438 2.8438 5.3594 2.8438 9.0469s-0.94922 6.7031-2.8438 9.0469c-1.8984 2.3438-4.3203 3.5156-7.2656 3.5156-1.668 0-3.1406-0.33594-4.4219-1s-2.4492-1.6914-3.5-3.0781v3.4531h-7.6562v-33.234h7.6562z"/>
  </symbol>
  <symbol id="f" overflow="visible">
   <path d="m0.53125-23.922h7.6562l6.4219 16.234 5.4688-16.234h7.6562l-10.062 26.188c-1.0117 2.6641-2.1953 4.5234-3.5469 5.5781-1.3438 1.0625-3.1211 1.5938-5.3281 1.5938h-4.4219v-5.0156h2.3906c1.3008 0 2.2422-0.21094 2.8281-0.625 0.59375-0.40625 1.0547-1.1484 1.3906-2.2188l0.20312-0.65625z"/>
  </symbol>
  <symbol id="e" overflow="visible">
   <path d="m0.21875-31.891h8.2656l8.4531 23.531 8.4375-23.531h8.2656l-11.812 31.891h-9.7969z"/>
  </symbol>
  <symbol id="p" overflow="visible">
   <path d="m4.0156-31.891h8.2188v31.891h-8.2188z"/>
  </symbol>
  <symbol id="c" overflow="visible">
   <path d="m4.0156-31.891h9.1875l11.594 21.875v-21.875h7.7969v31.891h-9.1875l-11.594-21.875v21.875h-7.7969z"/>
  </symbol>
  <symbol id="o" overflow="visible">
   <path d="m2.4531-31.891h26.812v4.9688l-17.109 20.703h17.594v6.2188h-27.781v-4.9844l17.109-20.688h-16.625z"/>
  </symbol>
  <symbol id="b" overflow="visible">
   <path d="m4.0156-31.891h22.203v6.2188h-13.984v5.9375h13.141v6.2188h-13.141v7.2969h14.453v6.2188h-22.672z"/>
  </symbol>
  <symbol id="n" overflow="visible">
   <path d="m26.219-30.891v6.75c-1.7617-0.78125-3.4766-1.3672-5.1406-1.7656-1.668-0.40625-3.2422-0.60938-4.7188-0.60938-1.9609 0-3.4141 0.27344-4.3594 0.8125-0.9375 0.54297-1.4062 1.3867-1.4062 2.5312 0 0.85547 0.31641 1.5234 0.95312 2 0.63281 0.46875 1.7852 0.875 3.4531 1.2188l3.5 0.70312c3.5391 0.71875 6.0625 1.8047 7.5625 3.25 1.5 1.4492 2.25 3.5117 2.25 6.1875 0 3.5234-1.0469 6.1406-3.1406 7.8594-2.0859 1.7188-5.2734 2.5781-9.5625 2.5781-2.0234 0-4.0547-0.19531-6.0938-0.57812-2.0312-0.38281-4.0625-0.95703-6.0938-1.7188v-6.9375c2.0312 1.0859 3.9922 1.9023 5.8906 2.4531 1.9062 0.54297 3.7422 0.8125 5.5156 0.8125 1.7891 0 3.1602-0.29688 4.1094-0.89062 0.95703-0.60156 1.4375-1.457 1.4375-2.5625 0-1-0.32422-1.7695-0.96875-2.3125-0.64844-0.53906-1.9375-1.0234-3.875-1.4531l-3.1875-0.70312c-3.1875-0.6875-5.5234-1.7734-7-3.2656-1.4688-1.5-2.2031-3.5156-2.2031-6.0469 0-3.1758 1.0234-5.6172 3.0781-7.3281 2.0508-1.707 5-2.5625 8.8438-2.5625 1.75 0 3.5508 0.13281 5.4062 0.39062 1.8516 0.26172 3.7695 0.65625 5.75 1.1875z"/>
  </symbol>
  <symbol id="m" overflow="visible">
   <path d="m0.21875-31.891h29.391v6.2188h-10.578v25.672h-8.2188v-25.672h-10.594z"/>
  </symbol>
  <symbol id="l" overflow="visible">
   <path d="m4.0156-31.891h8.2188v19.109c0 2.6367 0.42969 4.5234 1.2969 5.6562 0.86328 1.1367 2.2695 1.7031 4.2188 1.7031 1.9688 0 3.3789-0.56641 4.2344-1.7031 0.86328-1.1328 1.2969-3.0195 1.2969-5.6562v-19.109h8.2344v19.109c0 4.5234-1.1367 7.8867-3.4062 10.094-2.2617 2.2109-5.7148 3.3125-10.359 3.3125-4.625 0-8.0742-1.1016-10.344-3.3125-2.2617-2.207-3.3906-5.5703-3.3906-10.094z"/>
  </symbol>
 </defs>
 <g>
  <path d="m606.3 275.17c-5.8789-7.9414-15.164-12.641-25.043-12.672h-462.52c-9.8789 0.03125-19.164 4.7305-25.043 12.672-6.5039 8.6914-8.5898 19.914-5.6445 30.359l64.805 230.41c1.8047 6.8008 5.7812 12.828 11.316 17.168 5.5391 4.3398 12.34 6.7578 19.375 6.8867h332.91c7.0352-0.12891 13.836-2.5469 19.375-6.8867 5.5352-4.3398 9.5117-10.367 11.316-17.168l64.801-230.41h0.003907c2.9453-10.445 0.85938-21.668-5.6445-30.359zm-11.207 25.629-64.805 230.41c-0.74609 3.1406-2.5078 5.9492-5.0078 7.9922-2.5039 2.0391-5.6055 3.1992-8.832 3.2969h-332.91c-3.2188-0.10938-6.3125-1.2734-8.8047-3.3125-2.4922-2.0391-4.2461-4.8398-4.9922-7.9766l-64.848-230.41c-1.4844-5.1719-0.47656-10.738 2.7227-15.066 2.5859-3.5625 6.7109-5.6875 11.113-5.7305h462.52c4.3984 0.046875 8.5117 2.1758 11.098 5.7305 3.2031 4.3242 4.2148 9.8945 2.7383 15.066z"/>
  <path d="m275.62 358.75h148.75c10.941 0 21.051-5.8359 26.523-15.312 5.4688-9.4766 5.4688-21.148 0-30.625-5.4727-9.4766-15.582-15.312-26.523-15.312h-148.75c-10.941 0-21.051 5.8359-26.523 15.312-5.4688 9.4766-5.4688 21.148 0 30.625 5.4727 9.4766 15.582 15.312 26.523 15.312zm0-43.75h148.75c7.25 0 13.125 5.875 13.125 13.125s-5.875 13.125-13.125 13.125h-148.75c-7.25 0-13.125-5.875-13.125-13.125s5.875-13.125 13.125-13.125z"/>
  <path d="m225.75 442.75c1.6523-2.2031 2.1719-5.0547 1.3984-7.6992l-15.312-52.5c-1.0859-3.7344-4.5078-6.3008-8.3984-6.3008h-45.938c-2.7227 0-5.2852 1.2656-6.9414 3.4219-1.6562 2.1602-2.2148 4.9648-1.5117 7.5938l14.086 52.5h0.003907c1.0234 3.8242 4.4922 6.4844 8.4492 6.4844h47.164c2.7539 0 5.3477-1.2969 7-3.5zm-47.453-14-9.4219-35h28l10.211 35z"/>
  <path d="m297.5 446.25c2.7539 0 5.3477-1.2969 7-3.5s2.1719-5.0547 1.3984-7.6992l-15.312-52.5c-1.0859-3.7344-4.5078-6.3008-8.3984-6.3008h-45.938c-2.7227 0-5.2852 1.2656-6.9414 3.4219-1.6562 2.1602-2.2148 4.9648-1.5117 7.5938l14.086 52.5h0.003907c1.0234 3.8242 4.4922 6.4844 8.4492 6.4844zm-21.875-52.5 10.211 35h-28.789l-9.4219-35z"/>
  <path d="m472.2 387.27c0.70312-2.6289 0.14453-5.4336-1.5117-7.5938-1.6562-2.1562-4.2188-3.4219-6.9414-3.4219h-45.938c-3.8906 0-7.3125 2.5664-8.3984 6.3008l-15.312 52.5c-0.77344 2.6445-0.25391 5.4961 1.3984 7.6992s4.2461 3.5 7 3.5h47.164c3.957 0 7.4258-2.6602 8.4492-6.4844zm-29.25 41.484h-28.789l10.211-35h28z"/>
  <path d="m542.5 376.25h-45.938c-3.8906 0-7.3125 2.5664-8.3984 6.3008l-15.312 52.5c-0.77344 2.6445-0.25391 5.4961 1.3984 7.6992s4.2461 3.5 7 3.5h47.164c3.957 0 7.4258-2.6602 8.4492-6.4844l14.086-52.5h0.003906c0.70312-2.6289 0.14453-5.4336-1.5117-7.5938-1.6562-2.1562-4.2188-3.4219-6.9414-3.4219zm-20.797 52.5h-28.789l10.211-35h28z"/>
  <path d="m446.25 463.75h-39.375c-3.8672 0-7.2734 2.5352-8.3828 6.2383l-13.125 43.75c-0.79297 2.6484-0.28906 5.5195 1.3633 7.7383 1.6523 2.2148 4.2539 3.5234 7.0195 3.5234h40.426c3.9336 0 7.3867-2.6289 8.4336-6.4219l12.074-43.75c0.72656-2.6328 0.18359-5.457-1.4727-7.6289-1.6523-2.1719-4.2305-3.4492-6.9609-3.4492zm-18.734 43.75h-22.004l7.875-26.25h21.375z"/>
  <path d="m516.25 463.75h-39.375c-3.8672 0-7.2734 2.5352-8.3828 6.2383l-13.125 43.75c-0.79297 2.6484-0.28906 5.5195 1.3633 7.7383 1.6523 2.2148 4.2539 3.5234 7.0195 3.5234h40.426c3.9336 0 7.3867-2.6289 8.4336-6.4219l12.074-43.75c0.72656-2.6328 0.18359-5.457-1.4727-7.6289-1.6523-2.1719-4.2305-3.4492-6.9609-3.4492zm-18.734 43.75h-22.004l7.875-26.25h21.375z"/>
  <path d="m301.51 469.99c-1.1094-3.7031-4.5156-6.2383-8.3828-6.2383h-39.375c-2.7305 0-5.3086 1.2773-6.9609 3.4492-1.6562 2.1719-2.1992 4.9961-1.4727 7.6289l12.074 43.75c1.0469 3.793 4.5 6.4219 8.4336 6.4219h40.426c2.7656 0 5.3672-1.3086 7.0195-3.5234 1.6523-2.2188 2.1562-5.0898 1.3633-7.7383zm-29.023 37.512-7.2461-26.25h21.375l7.875 26.25z"/>
  <path d="m231.51 469.99c-1.1094-3.7031-4.5156-6.2383-8.3828-6.2383h-39.375c-2.7305 0-5.3086 1.2773-6.9609 3.4492-1.6562 2.1719-2.1992 4.9961-1.4727 7.6289l12.074 43.75c1.0469 3.793 4.5 6.4219 8.4336 6.4219h40.426c2.7656 0 5.3672-1.3086 7.0195-3.5234 1.6523-2.2188 2.1562-5.0898 1.3633-7.7383zm-29.023 37.512-7.2461-26.25h21.375l7.875 26.25z"/>
  <path d="m315 376.25c-2.6953 0-5.2383 1.2422-6.8984 3.3672-1.6562 2.125-2.2422 4.8945-1.5898 7.5078l13.125 52.5c0.97656 3.8945 4.4766 6.625 8.4883 6.625h43.75c4.0117 0 7.5117-2.7305 8.4883-6.625l13.125-52.5c0.65234-2.6133 0.066407-5.3828-1.5898-7.5078-1.6602-2.125-4.2031-3.3672-6.8984-3.3672zm50.043 52.5h-30.086l-8.75-35h47.582z"/>
  <path d="m376.25 463.75h-52.5c-2.7188 0-5.2812 1.2656-6.9375 3.4219s-2.2148 4.957-1.5156 7.5859l11.664 43.75c1.0234 3.8281 4.4883 6.4922 8.4531 6.4922h29.172c3.9648 0 7.4297-2.6641 8.4531-6.4922l11.664-43.75c0.69922-2.6289 0.14062-5.4297-1.5156-7.5859s-4.2188-3.4219-6.9375-3.4219zm-18.375 43.75h-15.75l-7-26.25h29.75z"/>
  <path d="m446.25 175h-262.5c-12.504 0-24.059 6.6719-30.312 17.5-6.25 10.828-6.25 24.172 0 35 6.2539 10.828 17.809 17.5 30.312 17.5h288.75c28.133 0 54.133-15.008 68.199-39.375 14.066-24.367 14.066-54.383 0-78.75-14.066-24.367-40.066-39.375-68.199-39.375h-288.75c-12.504 0-24.059 6.6719-30.312 17.5-6.25 10.828-6.25 24.172 0 35 6.2539 10.828 17.809 17.5 30.312 17.5h262.5c4.832 0 8.75 3.918 8.75 8.75s-3.918 8.75-8.75 8.75zm0-35h-262.5c-6.2539 0-12.031-3.3359-15.156-8.75s-3.125-12.086 0-17.5 8.9023-8.75 15.156-8.75h288.75c21.883 0 42.102 11.676 53.043 30.625 10.941 18.949 10.941 42.301 0 61.25-10.941 18.949-31.16 30.625-53.043 30.625h-288.75c-6.2539 0-12.031-3.3359-15.156-8.75s-3.125-12.086 0-17.5 8.9023-8.75 15.156-8.75h262.5c9.3789 0 18.043-5.0039 22.734-13.125 4.6875-8.1211 4.6875-18.129 0-26.25-4.6914-8.1211-13.355-13.125-22.734-13.125z"/>
  <path d="m210 70h280c12.504 0 24.059-6.6719 30.312-17.5 6.25-10.828 6.25-24.172 0-35-6.2539-10.828-17.809-17.5-30.312-17.5h-280c-12.504 0-24.059 6.6719-30.312 17.5-6.25 10.828-6.25 24.172 0 35 6.2539 10.828 17.809 17.5 30.312 17.5zm0-52.5h280c6.2539 0 12.031 3.3359 15.156 8.75s3.125 12.086 0 17.5-8.9023 8.75-15.156 8.75h-280c-6.2539 0-12.031-3.3359-15.156-8.75s-3.125-12.086 0-17.5 8.9023-8.75 15.156-8.75z"/>
  <use x="70" y="691.25" xlink:href="#d"/>
  <use x="102.109375" y="691.25" xlink:href="#k"/>
  <use x="123.683594" y="691.25" xlink:href="#a"/>
  <use x="153.355469" y="691.25" xlink:href="#j"/>
  <use x="182.878906" y="691.25" xlink:href="#i"/>
  <use x="203.792969" y="691.25" xlink:href="#a"/>
  <use x="233.464844" y="691.25" xlink:href="#h"/>
  <use x="280.011719" y="691.25" xlink:href="#g"/>
  <use x="311.328125" y="691.25" xlink:href="#f"/>
  <use x="355.078125" y="691.25" xlink:href="#e"/>
  <use x="388.9375" y="691.25" xlink:href="#p"/>
  <use x="405.21875" y="691.25" xlink:href="#c"/>
  <use x="441.832031" y="691.25" xlink:href="#o"/>
  <use x="473.554688" y="691.25" xlink:href="#b"/>
  <use x="503.441406" y="691.25" xlink:href="#c"/>
  <use x="540.054688" y="691.25" xlink:href="#d"/>
  <use x="572.164062" y="691.25" xlink:href="#b"/>
  <use x="617.28125" y="691.25" xlink:href="#n"/>
  <use x="648.789062" y="691.25" xlink:href="#m"/>
  <use x="678.632812" y="691.25" xlink:href="#l"/>
 </g>
</svg>
